<svg xmlns="http://www.w3.org/2000/svg" xmlns:xlink="http://www.w3.org/1999/xlink" viewBox="0 0 608 470"><defs><style>.cls-1,.cls-7,.cls-9{fill:none;}.cls-2{isolation:isolate;}.cls-3{clip-path:url(#clip-path);}.cls-4{opacity:0.9;}.cls-5{opacity:0.5;mix-blend-mode:overlay;}.cls-6{fill:#f2f2f2;}.cls-6,.cls-7{stroke:#00a99d;}.cls-6,.cls-9{stroke-miterlimit:10;}.cls-8{font-size:100px;stroke:#000;font-family:green-line-Regular, green line;}.cls-9{stroke:url(#linear-gradient);}.cls-10{font-size:30px;fill:#006837;font-family:Montserrat-UltraLight, Montserrat;font-weight:100;}</style><clipPath id="clip-path" transform="translate(-675 -307)"><ellipse class="cls-1" cx="993.5" cy="541.17" rx="246.5" ry="234.17"/></clipPath><linearGradient id="linear-gradient" x1="765.36" y1="501.41" x2="1281.65" y2="501.41" gradientUnits="userSpaceOnUse"><stop offset="0" stop-color="#22b573"/><stop offset="1" stop-color="#00a99d"/></linearGradient></defs><title>logo</title><g class="cls-2"><g id="Layer_1" data-name="Layer 1"><g class="cls-3"><image class="cls-4" width="6000" height="4000" transform="translate(0 0) scale(0.1 0.12)" xlink:href="Frost-Watercolor-Backgrounds-1-1741007-GraphicEx.com/Frost%20Watercolor%20Backgrounds%201/5.jpg"/><g class="cls-5"><path class="cls-6" d="M738.53,560.53a4.15,4.15,0,1,1-5.8-.85A4.17,4.17,0,0,1,738.53,560.53Z" transform="translate(-675 -307)"/><path class="cls-6" d="M775.62,499.66a4.15,4.15,0,1,1-5.8-.84A4.15,4.15,0,0,1,775.62,499.66Z" transform="translate(-675 -307)"/><path class="cls-6" d="M803.34,553.56a4.15,4.15,0,1,1-5.81-.85A4.15,4.15,0,0,1,803.34,553.56Z" transform="translate(-675 -307)"/><path class="cls-6" d="M884.08,541.59a4.15,4.15,0,1,1-5.8-.85A4.15,4.15,0,0,1,884.08,541.59Z" transform="translate(-675 -307)"/><path class="cls-6" d="M851,596.71a4.15,4.15,0,1,1-5.8-.85A4.16,4.16,0,0,1,851,596.71Z" transform="translate(-675 -307)"/><path class="cls-6" d="M977.74,496.5a4.15,4.15,0,1,1-5.81-.85A4.17,4.17,0,0,1,977.74,496.5Z" transform="translate(-675 -307)"/><path class="cls-6" d="M934.35,593.83a4.14,4.14,0,1,1-5.8-.84A4.15,4.15,0,0,1,934.35,593.83Z" transform="translate(-675 -307)"/><path class="cls-6" d="M927.79,485.45a4.15,4.15,0,1,1-5.8-.84A4.16,4.16,0,0,1,927.79,485.45Z" transform="translate(-675 -307)"/><path class="cls-6" d="M856.38,482.16a4.15,4.15,0,1,1-5.81-.85A4.16,4.16,0,0,1,856.38,482.16Z" transform="translate(-675 -307)"/><path class="cls-6" d="M893,423a4.15,4.15,0,1,1-5.8-.85A4.16,4.16,0,0,1,893,423Z" transform="translate(-675 -307)"/><path class="cls-6" d="M951.68,398.53a4.15,4.15,0,1,1-5.8-.85A4.15,4.15,0,0,1,951.68,398.53Z" transform="translate(-675 -307)"/><path class="cls-6" d="M998.49,424.35a4.14,4.14,0,1,1-5.8-.85A4.16,4.16,0,0,1,998.49,424.35Z" transform="translate(-675 -307)"/><path class="cls-6" d="M1043.31,366a4.14,4.14,0,1,1-5.8-.85A4.15,4.15,0,0,1,1043.31,366Z" transform="translate(-675 -307)"/><path class="cls-6" d="M1083.7,398a4.15,4.15,0,1,1-5.81-.84A4.15,4.15,0,0,1,1083.7,398Z" transform="translate(-675 -307)"/><path class="cls-6" d="M1044.57,477a4.15,4.15,0,1,1-5.81-.85A4.16,4.16,0,0,1,1044.57,477Z" transform="translate(-675 -307)"/><path class="cls-6" d="M1092.43,437.06a4.15,4.15,0,1,1-5.8-.84A4.14,4.14,0,0,1,1092.43,437.06Z" transform="translate(-675 -307)"/><path class="cls-6" d="M1045.61,415.4a4.14,4.14,0,1,1-5.8-.85A4.14,4.14,0,0,1,1045.61,415.4Z" transform="translate(-675 -307)"/><path class="cls-6" d="M1136.11,314.64a4.18,4.18,0,0,1-.85,5.82,4.15,4.15,0,1,1,.85-5.82Z" transform="translate(-675 -307)"/><path class="cls-6" d="M1185.68,381.23a4.15,4.15,0,1,1-5.81-.85A4.15,4.15,0,0,1,1185.68,381.23Z" transform="translate(-675 -307)"/><path class="cls-6" d="M1117.17,363.32a4.14,4.14,0,1,1-5.79-.85A4.15,4.15,0,0,1,1117.17,363.32Z" transform="translate(-675 -307)"/><path class="cls-6" d="M974.91,559.39a4.15,4.15,0,1,1-5.8-.85A4.16,4.16,0,0,1,974.91,559.39Z" transform="translate(-675 -307)"/><path class="cls-6" d="M833.65,690.12a4.15,4.15,0,1,1-5.8-.83A4.16,4.16,0,0,1,833.65,690.12Z" transform="translate(-675 -307)"/><path class="cls-6" d="M777.44,625.74a4.15,4.15,0,1,1-5.81-.84A4.16,4.16,0,0,1,777.44,625.74Z" transform="translate(-675 -307)"/><path class="cls-6" d="M1117.54,536.08a4.14,4.14,0,1,1-5.8-.85A4.15,4.15,0,0,1,1117.54,536.08Z" transform="translate(-675 -307)"/><path class="cls-6" d="M1036.81,542.5a4.15,4.15,0,1,1-5.8-.84A4.14,4.14,0,0,1,1036.81,542.5Z" transform="translate(-675 -307)"/><path class="cls-6" d="M1233,518.89a4.15,4.15,0,1,1-5.8-.84A4.16,4.16,0,0,1,1233,518.89Z" transform="translate(-675 -307)"/><path class="cls-6" d="M1125.23,472.31a4.15,4.15,0,1,1-5.8-.84A4.16,4.16,0,0,1,1125.23,472.31Z" transform="translate(-675 -307)"/><path class="cls-6" d="M1039.78,592.79a4.15,4.15,0,1,1-5.8-.85A4.15,4.15,0,0,1,1039.78,592.79Z" transform="translate(-675 -307)"/><path class="cls-6" d="M1149,591.31a4.15,4.15,0,1,1-5.8-.85A4.16,4.16,0,0,1,1149,591.31Z" transform="translate(-675 -307)"/><path class="cls-6" d="M1083.32,679.06a4.14,4.14,0,1,1-5.8-.84A4.16,4.16,0,0,1,1083.32,679.06Z" transform="translate(-675 -307)"/><path class="cls-6" d="M933.91,739.57a4.15,4.15,0,1,1-5.81-.85A4.16,4.16,0,0,1,933.91,739.57Z" transform="translate(-675 -307)"/><path class="cls-6" d="M1191.84,454.33a4.15,4.15,0,1,1-5.81-.85A4.16,4.16,0,0,1,1191.84,454.33Z" transform="translate(-675 -307)"/><path class="cls-6" d="M921.69,534.22a4.15,4.15,0,1,1-5.8-.85A4.15,4.15,0,0,1,921.69,534.22Z" transform="translate(-675 -307)"/><path class="cls-6" d="M985.23,667.72a4.15,4.15,0,1,1-5.8-.85A4.16,4.16,0,0,1,985.23,667.72Z" transform="translate(-675 -307)"/><path class="cls-6" d="M907.89,650.9a4.15,4.15,0,1,1-5.8-.84A4.15,4.15,0,0,1,907.89,650.9Z" transform="translate(-675 -307)"/><path class="cls-6" d="M823.79,430.52a4.15,4.15,0,1,1-5.8-.84A4.15,4.15,0,0,1,823.79,430.52Z" transform="translate(-675 -307)"/><path class="cls-6" d="M760.86,412.81a4.15,4.15,0,1,1-5.8-.84A4.16,4.16,0,0,1,760.86,412.81Z" transform="translate(-675 -307)"/><path class="cls-6" d="M730.54,505.46a4.15,4.15,0,1,1-5.81-.84A4.16,4.16,0,0,1,730.54,505.46Z" transform="translate(-675 -307)"/><path class="cls-6" d="M693.77,437.14a4.15,4.15,0,1,1-5.81-.84A4.16,4.16,0,0,1,693.77,437.14Z" transform="translate(-675 -307)"/><path class="cls-6" d="M782.38,450.77a4.15,4.15,0,1,1-5.8-.85A4.16,4.16,0,0,1,782.38,450.77Z" transform="translate(-675 -307)"/><path class="cls-6" d="M1009.37,732.52a4.15,4.15,0,1,1-5.8-.85A4.15,4.15,0,0,1,1009.37,732.52Z" transform="translate(-675 -307)"/><path class="cls-6" d="M1079.92,619a4.15,4.15,0,1,1-5.81-.85A4.15,4.15,0,0,1,1079.92,619Z" transform="translate(-675 -307)"/><path class="cls-6" d="M1140,651.52a4.15,4.15,0,1,1-5.8-.84A4.17,4.17,0,0,1,1140,651.52Z" transform="translate(-675 -307)"/><path class="cls-6" d="M1230.25,577.64a4.15,4.15,0,1,1-5.8-.85A4.15,4.15,0,0,1,1230.25,577.64Z" transform="translate(-675 -307)"/><path class="cls-6" d="M1171.67,542.19a4.15,4.15,0,1,1-5.8-.85A4.16,4.16,0,0,1,1171.67,542.19Z" transform="translate(-675 -307)"/><path class="cls-6" d="M884.34,765.13a4.15,4.15,0,1,1-5.81-.86A4.15,4.15,0,0,1,884.34,765.13Z" transform="translate(-675 -307)"/><path class="cls-6" d="M998.82,322.91a4.15,4.15,0,1,1-5.8-.84A4.15,4.15,0,0,1,998.82,322.91Z" transform="translate(-675 -307)"/><path class="cls-6" d="M1005.76,373a4.15,4.15,0,1,1-5.8-.85A4.16,4.16,0,0,1,1005.76,373Z" transform="translate(-675 -307)"/><path class="cls-6" d="M1074,316.47a4.15,4.15,0,1,1-5.8-.84A4.16,4.16,0,0,1,1074,316.47Z" transform="translate(-675 -307)"/><path class="cls-6" d="M1211.68,395.22a4.15,4.15,0,1,1-5.81-.85A4.17,4.17,0,0,1,1211.68,395.22Z" transform="translate(-675 -307)"/><polyline class="cls-7" points="147.28 125.48 251.14 180.98 178.69 177.54 125.06 249.38 127.78 250.57 172.41 291.37 155.94 384.72 229.69 348.52 256.87 436.9 156.16 386.48 154.99 385.9 101.35 321.89 174.4 294.03 227.92 344.31 205.21 237.86 257.04 290.79 308.14 363.13 361.05 289.07 296.05 254.27 255.34 289.75 229.47 346.38 205.57 461.86 332.66 428.17 306.75 363.72 306.14 366.01"/><polyline class="cls-7" points="206.32 239.34 125.06 249.38 60.17 255.48 173.81 292.63 203.81 236.6 244.08 229.54 249.67 180.24 214.31 119.16 273.86 93.55 320.37 121.44 325.96 68.45 319.98 19.03 365.71 61.32 406.61 93.39 367.42 111.16 415.21 132.1 366.89 172.81 320.37 121.44 249.67 180.24 273.86 93.55 319.98 19.03"/><path class="cls-7" d="M1002.44,376.19s38.12-6.84,37.46-5.88,29.77-50.79,29.77-50.79l45.87,46.78,17.23-49.71,49.65,67.91-60.69,91.39-31.52-36.79-8.6-38.71,31.2-33.43,76.49,89.76-74.67,82.49L1231,521.36l-85.2,73.31-32.79-57-80.29,8.86,9.17-66.71L972,498.89" transform="translate(-675 -307)"/><polyline class="cls-7" points="241.65 229.98 299.17 193 319.05 119.67 365.71 61.32 367.42 111.16 320.37 121.44"/><path class="cls-7" d="M1003.54,377.67" transform="translate(-675 -307)"/><polyline class="cls-7" points="274.37 95.48 359.22 238.15 296.05 254.27 307.85 365.2 405.12 375.43 471.99 286.79 360.54 287.15 358.47 238.45 414.26 131.84"/><line class="cls-7" x1="177" y1="176.5" x2="215.58" y2="118.21"/><polyline class="cls-7" points="404.58 373.68 361.05 289.07 439.63 232.21 446.73 168.89 357.72 239.52"/><line class="cls-7" x1="364.53" y1="170.88" x2="437.69" y2="232.9"/><path class="cls-7" d="M818.42,433.67" transform="translate(-675 -307)"/><polyline class="cls-7" points="401.23 315.24 306.75 363.72 154.99 385.9 205.57 461.86 255.74 435.5"/><polyline class="cls-7" points="256.57 435.27 330.68 427.35 405.12 375.43 401.23 315.24 463.43 345.69 470.8 287.67 399.53 314.2 363.56 288.12"/><polyline class="cls-7" points="84.5 109.29 103.27 146.84 16.53 132.44 81.94 109.97 51.13 201.14 14.65 135.68"/><polyline class="cls-7" points="106.12 146.56 98.13 194.28 51.13 201.14 144.92 125.4"/><line class="cls-7" x1="51.13" y1="201.14" x2="59.14" y2="257.18"/><path class="cls-7" d="M778.27,453.84" transform="translate(-675 -307)"/><path class="cls-7" d="M756.85,415.2" transform="translate(-675 -307)"/><path class="cls-7" d="M936.51,307.4" transform="translate(-675 -307)"/><line class="cls-7" x1="437.81" y1="59.96" x2="507.99" y2="75.39"/><polyline class="cls-7" points="470.8 287.67 553.62 274.16 557.17 217.7"/><polyline class="cls-7" points="405.12 375.43 461.65 347.01 553.62 274.16"/><line class="cls-7" x1="495.29" y1="236.9" x2="551.9" y2="275.05"/><path class="cls-7" d="M1007.66,735.17" transform="translate(-675 -307)"/><line class="cls-7" x1="507.36" y1="76.71" x2="533.53" y2="91.07"/><line class="cls-7" x1="494.45" y1="25.48" x2="442.89" y2="61.14"/></g><text class="cls-8" transform="translate(95.86 228.91)">Piper net</text><path class="cls-9" d="M782.87,535.57l.15-66.84h-7.77l0-5H788l-.15,71.82Zm-7.57-73.88v-5c3.91,0,7.8,0,11.69,0s7.81,0,11.75,0a26.77,26.77,0,0,1,26.76,26.76,26.21,26.21,0,0,1-7.91,19,25.85,25.85,0,0,1-19,7.86v-5a21.81,21.81,0,0,0,.1-43.61c-3.94,0-7.86,0-11.75,0S779.21,461.69,775.3,461.69Zm23.34,41.61v-5a14.77,14.77,0,0,0,14.8-14.75,14.4,14.4,0,0,0-4.3-10.4,14.19,14.19,0,0,0-10.4-4.3H795l-.15,66.75h-5l.15-71.78h8.69a19.76,19.76,0,0,1-.1,39.51Z" transform="translate(-675 -307)"/><path class="cls-9" d="M840.19,535.57l.15-66.84h-7.76l0-5h12.7l-.15,71.82Zm-7.57-78.86h19.73v6l-.15,72.85h-5l.15-72.85v-1H832.62Z" transform="translate(-675 -307)"/><path class="cls-9" d="M868.22,535.57l.15-66.84H860.6l0-5h12.7l-.15,71.82Zm-7.57-73.88v-5q5.86,0,11.7,0c3.89,0,7.8,0,11.74,0a26.77,26.77,0,0,1,26.76,26.76,26.17,26.17,0,0,1-7.91,19,25.83,25.83,0,0,1-19,7.86v-5a21.81,21.81,0,0,0,.1-43.61c-3.94,0-7.85,0-11.74,0S864.56,461.69,860.65,461.69ZM884,503.3v-5a14.77,14.77,0,0,0,14.8-14.75,14.4,14.4,0,0,0-4.3-10.4,14.18,14.18,0,0,0-10.4-4.3h-3.71l-.15,66.75h-5l.15-71.78h8.69a19.76,19.76,0,0,1-.1,39.51Z" transform="translate(-675 -307)"/><path class="cls-9" d="M964.9,517.36l0,6.1a12.15,12.15,0,0,1-12.16,12.16H925.5l0-6,.15-60.79h-7.76l.05-5h12.69l-.15,65.82v1h22.17a6.91,6.91,0,0,0,5.08-2.1,6.71,6.71,0,0,0,2.1-5.08l0-6.1ZM918,461.74v-5h47.07v18.31h-5l.05-12.3v-1H918Zm32.08,34.33v5H937.65l0,22.56h15.09l.1-.05a.14.14,0,0,0,.05-.1v-6.1h5v6.1a5.16,5.16,0,0,1-5.13,5.13H932.58l.09-32.52Zm7.91-21h-5v-6.25H937.7L937.65,489H950.1v5H932.67l.05-30.18H958Z" transform="translate(-675 -307)"/><path class="cls-9" d="M979.6,535.57l.14-66.75H972l0-5h12.69l-.14,71.78ZM972,461.74v-5h23.44a26.75,26.75,0,0,1,26.75,26.76,26.24,26.24,0,0,1-7.37,18.31,27,27,0,0,1-10.2,6.79l4.83,12.74a3.6,3.6,0,0,0,1.37,1.66,2.17,2.17,0,0,0,1.22.59h4.54l-.05,5h-4.49a6.72,6.72,0,0,1-4.2-1.56,8.3,8.3,0,0,1-3.08-3.91L998,505.2a22,22,0,0,0,13.23-6.79,21.74,21.74,0,0,0-15.77-36.67H972Zm44.53,68.9v4.93h-5.71a14,14,0,0,1-7.23-2.88,15.63,15.63,0,0,1-5.42-7.08l-6.54-17.24,0,27.2h-5l.15-71.78h8.69a19.75,19.75,0,0,1,19.67,19.73,19.15,19.15,0,0,1-5.42,13.48,19.43,19.43,0,0,1-13.23,6.3l-1.41.09.48,1.27,7.33,19.19a9.77,9.77,0,0,0,3.71,4.84,9.09,9.09,0,0,0,5.47,1.95Zm-24.8-61.82-.1,29.79,4.49-.29a14.48,14.48,0,0,0,10-4.74,14.08,14.08,0,0,0,4-10.06,14.4,14.4,0,0,0-4.29-10.4,14.19,14.19,0,0,0-10.4-4.3Z" transform="translate(-675 -307)"/><path class="cls-9" d="M1053.72,456.71h13.77a28.19,28.19,0,0,1,8.37,1.47q4.67,1.47,7.06,8.93l4.59,14.26,0-24.66h5l-.15,56.35-16-44.43a10.55,10.55,0,0,0-3.47-4.93,9,9,0,0,0-5.42-2H1054.6v-5Zm8.35,78.86.19-66.84h-7.71l0-5h12.64l-.19,71.82Zm25.29,0v-15l-13.13-35.5-.1,50.49h-5l.14-71.48a6.88,6.88,0,0,1,2.3,1.27,8,8,0,0,1,2.83,3.9l17.92,50.54,0,15.77Zm12.16-78.86-.2,78.86h-4.93l.2-78.86Z" transform="translate(-675 -307)"/><path class="cls-9" d="M1153.38,517.36l-.05,6.1a12.17,12.17,0,0,1-12.16,12.16H1114l0-6,.15-60.79h-7.77l0-5h12.7l-.15,65.82v1h22.17a6.91,6.91,0,0,0,5.08-2.1,6.71,6.71,0,0,0,2.1-5.08l.05-6.1Zm-46.93-55.62v-5h47.07v18.31h-5l0-12.3v-1h-42.09Zm32.08,34.33v5h-12.4l-.05,22.56h15.09l.1-.05a.14.14,0,0,0,0-.1v-6.1h5v6.1a5.17,5.17,0,0,1-5.13,5.13h-20.12l.1-32.52Zm7.91-21h-5v-6.25h-15.28l0,20.17h12.45v5h-17.43l0-30.18h25.29Z" transform="translate(-675 -307)"/><path class="cls-9" d="M1160.46,474.73l0-12v-6H1205a12.19,12.19,0,0,1,12.16,12.16l-.05,6.15h-5l.05-6.15a7.17,7.17,0,0,0-7.18-7.18h-39.5v13Zm22.17,60.84.19-66.75h-10.3v5.91h-5V463.79h20.26l-.19,71.78Zm27.44-60.5h-5v-6.15a.19.19,0,0,0,0-.1h-10.26l-.14,66.75h-5l.19-71.78H1205a5.1,5.1,0,0,1,5.08,5.13Z" transform="translate(-675 -307)"/><text class="cls-10" transform="translate(122 285.26)">Welcome to WEB 3.0 Era</text></g></g></g></svg>